<svg xmlns="http://www.w3.org/2000/svg"  viewBox="0 0 50 50" width="50px" height="50px"><path d="M44,4H6C4.897,4,4,4.897,4,6v38c0,1.103,0.897,2,2,2h38c1.103,0,2-0.897,2-2V6C46,4.897,45.103,4,44,4z M24.213,36	l-0.359-9.662c-0.106-3.068-0.232-6.757-0.21-9.498H23.58c-0.485,2.579-1.075,5.32-1.791,8.356l-2.51,10.673h-1.391L15.59,25.392	c-0.675-3.101-1.244-5.941-1.645-8.552h-0.042c-0.042,2.741-0.147,6.43-0.274,9.727L13.25,36H11.5l0.991-22h2.34l2.424,10.641	c0.59,2.709,1.075,5.125,1.434,7.41h0.064c0.358-2.22,0.864-4.636,1.497-7.41L22.78,14h2.34l0.886,22H24.213z M38,36h-2v-2.773	h-0.161C35.257,34.969,33.875,36,32.076,36C29.41,36,28,33.909,28,30.178V20h2v9.495c0,2.715,0.88,4.022,2.712,4.022	c2.008,0,3.288-1.612,3.288-4.254V20h2V36z"/></svg>