<svg xmlns="http://www.w3.org/2000/svg"  viewBox="0 0 50 50" width="50px" height="50px"><path d="M 23.5 4 C 11.645 4 2 13.644 2 25.5 C 2 37.356 11.645 47 23.5 47 C 26.594 47 29.594016 46.344734 32.416016 45.052734 C 32.771016 44.889734 33 44.536531 33 44.144531 L 33 31.636719 C 33 31.202719 32.720641 30.818547 32.306641 30.685547 C 31.894641 30.551547 31.443453 30.700734 31.189453 31.052734 C 29.404453 33.523734 26.53 35 23.5 35 C 18.262 35 14 30.738 14 25.5 C 14 20.262 18.262 16 23.5 16 C 26.53 16 29.403453 17.475266 31.189453 19.947266 C 31.443453 20.299266 31.895594 20.449453 32.308594 20.314453 C 32.721594 20.181453 33 19.797281 33 19.363281 L 33 6.8554688 C 33 6.4634688 32.771016 6.1093125 32.416016 5.9453125 C 29.595016 4.6543125 26.596 4 23.5 4 z M 36.080078 8.390625 C 35.899328 8.376 35.716328 8.4110937 35.548828 8.4960938 C 35.212828 8.6660938 35 9.0116719 35 9.3886719 L 35 41.550781 C 35 41.929781 35.214687 42.276312 35.554688 42.445312 C 35.694688 42.515312 35.848 42.550781 36 42.550781 C 36.213 42.550781 36.424563 42.483609 36.601562 42.349609 C 41.555563 38.623609 45.813063 32.934344 48.914062 25.902344 C 49.025062 25.652344 49.027828 25.369187 48.923828 25.117188 C 46.003828 18.065187 41.738797 12.347078 36.591797 8.5800781 C 36.439297 8.4685781 36.260828 8.40525 36.080078 8.390625 z"/></svg>