<svg xmlns="http://www.w3.org/2000/svg"  viewBox="0 0 50 50" width="100px" height="100px"><path d="M 1.5 20 C 0.671875 20 0 20.671875 0 21.5 L 0 30 L 2 30 L 2 22.5 C 2 22.222656 2.222656 22 2.5 22 L 5 22 L 5 30 L 7 30 L 7 22 L 9.5 22 C 9.777344 22 10 22.222656 10 22.5 L 10 30 L 12 30 L 12 21.5 C 12 20.671875 11.328125 20 10.5 20 Z M 15.5 20 C 14.671875 20 14 20.671875 14 21.5 L 14 28.5 C 14 29.328125 14.671875 30 15.5 30 L 23 30 L 23 28 L 16.5 28 C 16.222656 28 16 27.777344 16 27.5 L 16 26 L 22 26 L 22 24 L 16 24 L 16 22.5 C 16 22.222656 16.222656 22 16.5 22 L 23 22 L 23 20 Z M 25 20 L 25 30 L 27 30 L 27 20 Z M 29 20 L 29 22 L 34.78125 22 L 29.417969 28.171875 L 29.46875 28.117188 C 29.148438 28.433594 29.070313 28.945313 29.222656 29.316406 C 29.378906 29.691406 29.792969 30 30.238281 30 L 38 30 L 38 28 L 32.21875 28 L 37.535156 21.878906 C 37.855469 21.5625 37.929688 21.046875 37.777344 20.675781 C 37.621094 20.308594 37.207031 20 36.761719 20 Z M 40 20 L 40 28.5 C 40 29.328125 40.671875 30 41.5 30 L 48.5 30 C 49.328125 30 50 29.328125 50 28.5 L 50 20 L 48 20 L 48 27.5 C 48 27.777344 47.777344 28 47.5 28 L 42.5 28 C 42.222656 28 42 27.777344 42 27.5 L 42 20 Z"/></svg>