<svg xmlns="http://www.w3.org/2000/svg"  viewBox="0 0 50 50" width="100px" height="100px"><path d="M 17.992188 12 C 17.941406 12.019531 17.898438 12.03125 17.859375 12.046875 C 17.160156 12.316406 16.800781 12.460938 16.097656 12.726563 C 16.023438 12.753906 16.015625 12.789063 16.015625 12.863281 C 16.023438 13.644531 16.007813 18.007813 16.011719 19.296875 C 16.015625 19.914063 16.015625 20.53125 16.015625 21.144531 C 16.015625 21.707031 16.03125 22.269531 16.011719 22.832031 C 16.011719 24.734375 15.628906 26.230469 15.351563 26.753906 C 15.277344 26.898438 15.1875 27.050781 15.066406 27.152344 C 14.832031 27.335938 14.554688 27.335938 14.292969 27.203125 C 14.042969 27.082031 13.929688 26.863281 13.929688 26.59375 C 13.925781 24.992188 13.929688 23.386719 13.925781 21.78125 L 13.925781 21.625 C 13.902344 21.628906 13.886719 21.628906 13.871094 21.636719 C 13.152344 21.859375 12.835938 21.941406 12.117188 22.164063 C 12.058594 22.183594 12.046875 22.210938 12.046875 22.265625 C 12.050781 22.597656 12.050781 22.933594 12.046875 23.265625 C 12.046875 23.640625 12.082031 26.320313 11.921875 27.269531 C 11.875 27.535156 11.625 28.929688 10.683594 28.929688 C 10.046875 28.929688 9.984375 28.265625 9.984375 28.046875 C 9.988281 27.121094 9.992188 26.191406 9.996094 25.265625 C 10 24.710938 9.996094 24.347656 10 23.796875 L 10 23.316406 C 9.945313 23.332031 9.910156 23.339844 9.875 23.355469 C 9.210938 23.589844 8.925781 23.714844 8.261719 23.949219 C 8.164063 23.980469 8.140625 24.027344 8.140625 24.125 C 8.132813 25.109375 8.125 25.910156 8.105469 26.894531 C 8.089844 27.59375 8.042969 28.285156 7.898438 28.96875 C 7.773438 29.554688 7.59375 30.125 7.234375 30.613281 C 6.808594 31.1875 6.289063 31.527344 5.570313 31.496094 C 5.367188 31.488281 5.210938 31.382813 5.105469 31.203125 C 5.015625 31.058594 5 30.894531 5 30.730469 C 5 27 4.976563 22.691406 4.976563 19.269531 C 4.976563 18.90625 5.058594 18.5625 5.210938 18.234375 C 5.40625 17.824219 5.699219 17.515625 6.144531 17.363281 C 6.480469 17.25 6.605469 17.214844 6.941406 17.097656 C 7.226563 16.996094 7.640625 17.089844 7.832031 17.324219 C 7.988281 17.515625 8.027344 17.742188 8.027344 17.980469 C 8.027344 18.847656 8.011719 19.683594 8.011719 20.550781 C 8.011719 20.589844 8.015625 20.632813 8.019531 20.675781 C 8.050781 20.667969 8.066406 20.664063 8.082031 20.65625 C 8.964844 20.382813 8.953125 20.339844 9.835938 20.066406 C 9.910156 20.046875 9.929688 20.003906 9.929688 19.9375 C 9.925781 18.925781 9.941406 17.941406 9.941406 16.933594 C 9.941406 16.210938 9.625 15.660156 9.046875 15.253906 C 8.730469 15.027344 8.375 14.933594 7.984375 15.050781 C 6.742188 15.4375 6.863281 15.390625 5.621094 15.777344 C 5.21875 15.898438 4.816406 16.015625 4.453125 16.246094 C 3.730469 16.699219 3.222656 17.316406 3.050781 18.171875 C 3.03125 18.265625 3.015625 18.355469 3 18.453125 C 3 20.480469 3.023438 23.21875 3.023438 25.25 C 3.027344 25.425781 3.03125 25.601563 3.03125 25.78125 C 3.035156 26.089844 3.03125 26.402344 3.03125 26.714844 C 3.03125 26.773438 3.023438 26.832031 3.023438 26.894531 L 3.023438 26.957031 C 3.027344 27.011719 3.039063 27.0625 3.039063 27.117188 C 3.039063 28.710938 3.039063 30.304688 3.042969 31.894531 C 3.042969 32.164063 3.027344 32.433594 3.117188 32.699219 C 3.402344 33.550781 4.152344 33.703125 4.710938 33.589844 C 5.121094 33.503906 5.476563 33.296875 5.835938 33.101563 C 6.269531 32.867188 6.566406 32.617188 7.007813 32.402344 C 7.371094 32.222656 7.867188 32.28125 7.984375 32.917969 C 8.007813 33.035156 8.019531 33.160156 8.019531 33.28125 C 8.023438 35.632813 8.023438 37.515625 8.023438 39.867188 C 8.023438 39.910156 8.027344 39.957031 8.03125 40 L 8.070313 40 C 8.101563 39.984375 8.132813 39.96875 8.164063 39.957031 C 8.9375 39.710938 9.109375 39.652344 9.882813 39.410156 C 9.972656 39.382813 9.992188 39.34375 9.992188 39.253906 C 9.992188 37.164063 9.992188 36.621094 9.992188 34.53125 C 9.992188 34.488281 9.992188 34.441406 9.996094 34.398438 C 10.058594 33.644531 10.039063 32.226563 10.273438 31.503906 C 10.433594 31.011719 10.621094 30.34375 10.988281 30.027344 C 11.21875 29.824219 11.441406 29.679688 11.71875 29.828125 C 12 29.945313 12.140625 30.675781 12.605469 30.90625 C 12.816406 31.007813 13.195313 31.003906 13.394531 30.882813 C 14.117188 30.4375 14.101563 29.855469 14.984375 28.710938 C 15.054688 28.617188 15.132813 28.539063 15.246094 28.515625 C 15.832031 28.375 16 28.929688 16 29.507813 C 16.027344 29.667969 16.019531 29.832031 16.03125 30 C 16.046875 29.996094 16.058594 29.992188 16.078125 29.984375 C 16.90625 29.730469 17.738281 29.480469 18.566406 29.214844 C 19.15625 29.023438 19.355469 29.042969 19.925781 28.800781 C 20.800781 28.433594 21.203125 28.207031 21.792969 27.453125 C 21.90625 27.308594 22.140625 26.589844 22.472656 26.375 C 22.652344 26.179688 23.476563 25.785156 23.738281 25.875 C 24.007813 25.964844 24.179688 26.140625 24.226563 26.421875 C 24.246094 26.542969 24.238281 26.671875 24.238281 26.796875 C 24.238281 26.863281 24.226563 26.929688 24.21875 27 C 24.238281 26.996094 24.25 26.992188 24.257813 26.988281 C 25.234375 26.6875 26.359375 26.375 27.335938 26.066406 C 27.824219 25.914063 28.320313 25.78125 28.78125 25.542969 C 29.257813 25.292969 29.652344 24.957031 29.859375 24.441406 C 30.011719 24.058594 30.027344 23.652344 29.964844 23.25 C 29.882813 22.714844 29.640625 22.265625 29.199219 21.9375 C 28.382813 21.332031 27.296875 20.984375 26.480469 20.378906 C 26.207031 20.179688 26.011719 19.902344 26.011719 19.5625 C 26.011719 19.242188 26.242188 18.929688 26.46875 18.777344 C 26.734375 18.601563 27.300781 18.582031 27.550781 18.777344 C 27.703125 18.890625 27.832031 19.035156 27.964844 19.171875 C 28.136719 19.351563 28.292969 19.546875 28.472656 19.71875 C 28.714844 19.949219 28.921875 19.941406 29.175781 19.730469 C 29.289063 19.632813 29.40625 19.53125 29.527344 19.441406 C 29.757813 19.273438 30.003906 19.136719 30.296875 19.089844 C 30.714844 19.023438 30.933594 19.25 31 19.667969 C 31.015625 19.75 31.019531 19.832031 31.019531 19.910156 C 31.019531 20.617188 31.019531 21.324219 31.019531 22.03125 C 31.019531 22.117188 31.023438 22.203125 31.039063 22.285156 C 31.113281 22.675781 31.296875 23.015625 31.546875 23.316406 C 31.890625 23.734375 32.324219 23.992188 32.871094 24.03125 C 33.207031 24.058594 33.535156 23.992188 33.855469 23.90625 C 34.339844 23.773438 34.910156 23.601563 35.390625 23.457031 C 36.074219 23.25 36.351563 23.1875 36.894531 22.722656 C 37.136719 22.515625 37.371094 22.25 37.636719 21.769531 C 37.730469 21.609375 37.808594 21.410156 37.941406 21.28125 C 38.082031 21.144531 38.261719 21.097656 38.457031 21.121094 C 38.773438 21.160156 38.992188 21.382813 39.054688 21.75 C 39.082031 21.910156 39.085938 22.074219 39.097656 22.25 C 39.835938 22.007813 40.261719 21.847656 41 21.601563 L 41 21.546875 C 41 19.984375 41 18.425781 41 16.863281 C 41 16.640625 40.992188 16.640625 41 16.414063 C 41 15.945313 41.40625 15.601563 41.6875 15.53125 C 41.871094 15.488281 42.4375 15.394531 42.613281 15.449219 C 42.8125 15.507813 42.949219 15.640625 43 15.84375 C 43.023438 15.921875 43.027344 16.011719 43.027344 16.09375 C 43.027344 17.097656 43.027344 18.097656 43.027344 19.097656 C 43.027344 21.738281 43.023438 25 43.027344 27.640625 C 43.027344 28.402344 43.679688 29.019531 44.4375 28.980469 C 45.039063 28.953125 45.296875 28.929688 45.835938 28.648438 C 46.632813 28.230469 46.933594 27.652344 46.980469 26.75 C 46.996094 26.417969 46.984375 26.53125 46.988281 26.199219 L 46.988281 26.035156 C 46.75 26.117188 46.527344 26.199219 46.304688 26.269531 C 46.238281 26.289063 46.214844 26.316406 46.214844 26.390625 C 46.21875 26.671875 46.21875 26.507813 46.21875 26.785156 C 46.214844 26.957031 46.175781 27.113281 46.050781 27.238281 C 45.851563 27.445313 45.578125 27.480469 45.277344 27.355469 C 45.011719 27.246094 44.953125 26.992188 44.953125 26.671875 C 44.953125 22.175781 44.953125 17.25 44.953125 12.753906 C 44.953125 12.589844 44.90625 12.441406 44.816406 12.300781 C 44.726563 12.152344 44.546875 12 44.191406 12 C 43.726563 12 43.347656 12.558594 43.234375 12.765625 C 43.054688 13.089844 42.683594 13.996094 42.019531 13.996094 C 41.601563 13.996094 41 13.742188 41 13.21875 C 41 13.097656 41 12.929688 41 12.816406 C 40.925781 12.839844 40.875 12.859375 40.816406 12.875 C 40.152344 13.09375 39.792969 13.226563 39.125 13.441406 C 39.046875 13.464844 39.023438 13.5 39.023438 13.578125 C 39.027344 14.007813 39.03125 14.433594 39.023438 14.863281 C 39.015625 15.476563 39 15.90625 39 16.703125 C 39 17.609375 39.082031 19.035156 38.164063 19.765625 C 37.867188 20 37.46875 19.9375 37.199219 19.667969 C 37.03125 19.503906 37 19.300781 37 19.082031 C 37 18.101563 37 17.121094 37 16.140625 C 37 15.769531 36.894531 15.425781 36.695313 15.113281 C 36.527344 14.851563 36.300781 14.660156 35.984375 14.625 C 35.832031 14.605469 35.695313 14.625 35.542969 14.648438 C 35.285156 14.691406 35.113281 14.761719 35 14.8125 C 35 14.851563 35 14.875 35 14.898438 L 35 15.574219 C 35 16.992188 35.003906 20.078125 35 21.363281 C 35 22.097656 34.695313 22.554688 33.992188 22.609375 C 33.277344 22.660156 33 22.0625 33 21.351563 L 33 20.097656 C 33 19.089844 33 18.1875 33 17.175781 C 33 16.621094 33.496094 16.226563 33.84375 16.144531 C 33.890625 16.136719 33.9375 16.128906 34 16.117188 L 34 15.128906 C 33.988281 15.132813 33.972656 15.132813 33.957031 15.140625 C 33.554688 15.246094 32.945313 15.472656 32.574219 15.660156 C 31.664063 16.125 30.90625 16.753906 30.390625 17.652344 C 30.375 17.679688 30.351563 17.703125 30.328125 17.722656 C 30.105469 17.898438 29.828125 18.070313 29.535156 17.996094 C 29.253906 17.917969 29 17.683594 29.003906 17.390625 C 29.007813 17.242188 29.003906 17.089844 29.003906 16.9375 C 29.003906 16.871094 29 16.800781 28.996094 16.71875 C 28.671875 16.828125 28.496094 16.886719 28.1875 16.988281 C 27.273438 17.292969 26.570313 17.550781 25.652344 17.851563 C 25.148438 18.015625 24.71875 18.28125 24.398438 18.703125 C 23.96875 19.277344 23.917969 19.910156 24.105469 20.578125 C 24.210938 20.953125 24.40625 21.265625 24.71875 21.515625 C 25.601563 22.238281 26.585938 22.84375 27.464844 23.503906 C 27.703125 23.683594 27.804688 24.003906 27.707031 24.285156 C 27.601563 24.609375 27.265625 24.867188 26.839844 25.0625 C 26.492188 25.21875 25.894531 25.34375 25.671875 25.085938 C 25.570313 24.964844 25.457031 24.722656 25.394531 24.574219 C 25.226563 24.148438 24.929688 23.894531 24.425781 24.085938 C 24.011719 24.242188 23.226563 24.566406 22.800781 24.707031 C 22.355469 24.855469 21.972656 24.601563 21.933594 24.128906 C 21.925781 24.066406 21.925781 24 21.925781 23.9375 C 21.925781 23.027344 21.921875 21.628906 21.925781 20.71875 C 21.929688 20.324219 21.820313 19.96875 21.609375 19.644531 C 21.371094 19.285156 20.851563 18.972656 20.410156 19.003906 C 20.050781 19.027344 19.4375 19.132813 19.097656 19.261719 C 19.027344 19.289063 19 19.328125 19 19.40625 C 19.007813 19.765625 19.003906 20.132813 19.003906 20.496094 C 19.003906 20.527344 19.007813 20.558594 19.011719 20.597656 C 19.320313 20.492188 19.664063 20.632813 19.796875 20.792969 C 19.9375 20.957031 20 21.15625 20 21.363281 C 20.003906 22.875 20.003906 24.871094 20 26.378906 C 20 26.984375 19.597656 27.507813 19 27.589844 C 18.300781 27.6875 17.957031 27.089844 17.957031 26.382813 L 17.964844 22.113281 L 17.96875 19.59375 C 17.972656 18.859375 17.972656 18.121094 17.972656 17.386719 C 17.976563 15.699219 17.996094 13.78125 18 12.09375 C 18 12.066406 17.996094 12.035156 17.992188 12 Z M 13.03125 18 C 12.480469 17.984375 12.011719 18.417969 12 18.953125 C 11.988281 19.511719 12.410156 19.976563 12.941406 20 C 13.523438 20.019531 13.988281 19.578125 14 19.015625 C 14.011719 18.476563 13.574219 18.015625 13.03125 18 Z"/></svg>