<svg xmlns="http://www.w3.org/2000/svg"  viewBox="0 0 50 50" width="50px" height="50px"><path d="M36,3.99H14c-5.51,0-10,4.49-10,10v22c0,5.51,4.49,10,10,10h22c5.51,0,10-4.49,10-10v-22C46,8.48,41.51,3.99,36,3.99z M28.5,33.25c0,0-2.75,1-5.62-3.13C20,26,15.25,21.75,8.62,21.38c4.76-0.76,6.26-0.26,6.26-0.26S18,19,21,19.62 c3.23,0.68,3.87,2.5,3.87,2.5l-1.5,1.26c0,0-2.12-2.63-5.75-1c2.67,1.2,7.09,6.4,7.37,6.72c-0.08-0.27-0.84-3.03,2.01-6.48 c3-3.62,9.87-11.37,9.87-11.37s0.63,2.5-1.12,4.63c-1.75,2.12-6.88,8-6.88,8S25,29.5,28.5,33.25z M35,36.88c0,0-1-0.88-4.12-4.63 c-3.13-3.75,0.37-7.5,0.37-7.5s2.13-2.63,5.37-5.87c0.63,2.87-0.75,4-0.75,4S35,24,33,26.12C31,28.25,32.87,31,32.87,31l6.25,7.12 C37.25,39.25,35,36.88,35,36.88z"/></svg>